<?xml version="1.0" standalone="no"?>
<!DOCTYPE svg PUBLIC "-//W3C//DTD SVG 20010904//EN"
 "http://www.w3.org/TR/2001/REC-SVG-20010904/DTD/svg10.dtd">
<svg version="1.0" xmlns="http://www.w3.org/2000/svg"
 width="87.000000pt" height="94.000000pt" viewBox="0 0 87.000000 94.000000"
 preserveAspectRatio="xMidYMid meet">

<g transform="translate(0.000000,94.000000) scale(0.100000,-0.100000)"
fill="#000000" stroke="none">
<path d="M334 836 c-39 -38 -44 -49 -44 -87 0 -24 3 -54 6 -67 6 -21 7 -21 19
-5 13 17 14 16 24 -9 6 -17 21 -30 37 -34 22 -6 32 -2 49 19 23 30 35 34 35
14 0 -8 8 -22 19 -31 15 -14 23 -15 45 -5 25 12 26 16 26 87 0 112 -40 162
-130 162 -37 0 -49 -6 -86 -44z m206 -114 c0 -10 -24 -12 -105 -10 -82 2 -105
6 -105 17 0 11 14 13 68 8 43 -3 78 -1 97 7 31 13 45 6 45 -22z"/>
<path d="M301 612 c-1 -46 26 -98 73 -141 28 -26 34 -51 13 -51 -16 0 -59 29
-70 47 -7 11 -16 7 -41 -15 -18 -16 -51 -32 -72 -35 -58 -10 -61 -14 -56 -94
4 -64 8 -76 38 -112 42 -48 107 -81 162 -81 l42 0 0 80 c0 44 4 80 10 80 13 0
30 -66 30 -117 0 -49 2 -50 104 -33 52 8 66 16 108 57 72 71 68 87 -39 148
-52 29 -93 60 -102 77 -9 15 -22 26 -28 23 -22 -8 -14 16 17 52 17 18 30 41
30 50 0 11 -6 8 -21 -11 -16 -21 -29 -26 -64 -26 -56 0 -93 30 -116 96 l-17
49 -1 -43z"/>
<path d="M425 611 c3 -5 -4 -16 -16 -24 -19 -14 -18 -15 25 -19 44 -3 58 4 35
17 -6 4 -8 13 -5 21 4 10 -2 14 -20 14 -14 0 -23 -4 -19 -9z"/>
</g>
</svg>
