<svg width="87" height="94" viewBox="0 0 87 94" fill="none" xmlns="http://www.w3.org/2000/svg">
<path fill-rule="evenodd" clip-rule="evenodd" d="M3.72858 5.03299C28.903 -1.67766 56.8542 -1.67766 82.0286 5.03299C82.0286 19.8299 82.0286 34.6268 82.0286 49.4238C82.0286 71.6181 42.8778 93.2143 42.8778 93.2143C42.8778 93.2143 3.72858 71.622 3.72858 49.4238C3.72858 34.6268 3.72858 19.8299 3.72858 5.03299Z" fill="white"/>
<path d="M52.896 11.455C53.476 12.412 54.23 13.572 54.607 14.007C55.216 14.79 55.245 15.109 55.332 21.46C55.419 27.202 55.361 28.246 54.926 29.145L52.896 11.455ZM52.896 11.455C52.345 10.498 51.591 9.483 51.243 9.193L52.896 11.455ZM39.3913 6.55163L39.3913 6.55168L39.3844 6.55294C38.7936 6.66035 37.8871 6.9627 37.4076 7.20121C36.627 7.62003 35.444 8.55911 34.2686 9.66265C33.0954 10.764 31.9783 11.9835 31.3253 12.9283L31.3253 12.9283L31.3226 12.9321C30.5489 14.0294 30.082 14.9376 29.8003 16.0607C29.515 17.1986 29.413 18.5834 29.413 20.648C29.413 21.8278 29.4357 22.5278 29.5189 23.0401C29.5975 23.5242 29.73 23.8403 29.9773 24.2437L29.9813 24.2503L29.9851 24.2569C30.2622 24.7419 30.5308 25.4559 30.7046 26.0961C30.7124 26.0764 30.7202 26.057 30.7279 26.0381C30.8346 25.7786 30.9836 25.5013 31.1445 25.2482C31.3047 24.9961 31.4876 24.751 31.6683 24.5621C31.758 24.4684 31.8585 24.3766 31.9656 24.3046C32.0603 24.2409 32.2222 24.15 32.422 24.15H32.4339L32.4457 24.1506C32.6847 24.1619 32.913 24.2327 33.119 24.3763C33.3195 24.5161 33.475 24.7084 33.6 24.929C33.843 25.3576 34.014 25.9714 34.1605 26.7624C34.3275 27.6526 34.5625 28.2784 34.8934 28.7484C35.2186 29.2103 35.6614 29.5574 36.3076 29.8479C37.599 30.4124 38.7678 30.52 40.1775 30.2218L40.179 30.2215C40.9005 30.0712 41.0966 30.0109 41.3065 29.794C41.4283 29.6683 41.5647 29.4744 41.7544 29.1393C41.9431 28.8061 42.1673 28.3651 42.4733 27.7602C42.8123 27.0824 43.1679 26.4448 43.4716 25.961C43.623 25.72 43.7665 25.5091 43.8924 25.3482C43.955 25.2683 44.0197 25.1923 44.0842 25.1288C44.135 25.0788 44.232 24.9887 44.362 24.9383C44.7279 24.7938 45.0729 24.9313 45.3073 25.093C45.5476 25.2588 45.7628 25.5065 45.945 25.7777C46.312 26.3241 46.6204 27.0796 46.7479 27.8433C46.9007 28.7319 47.1281 29.3347 47.4512 29.7725C47.7677 30.2014 48.2074 30.5142 48.867 30.765C49.5956 31.0364 50.0793 31.155 50.4426 31.1608C50.772 31.1661 51.0155 31.079 51.2773 30.8726C51.7116 30.5164 52.1796 30.2193 52.6241 30.0089C53.0594 29.803 53.5144 29.66 53.911 29.66C53.9102 29.66 53.9099 29.66 53.9099 29.66C53.9098 29.6597 53.9711 29.6537 54.0867 29.5382C54.2058 29.419 54.3421 29.2212 54.4708 28.9381L54.4706 28.938L54.4759 28.9272C54.6521 28.563 54.7691 28.1525 54.8254 27.0921C54.8823 26.0215 54.8756 24.3434 54.832 21.4676L54.832 21.4669C54.7883 18.279 54.7592 16.639 54.6675 15.6938C54.6221 15.2254 54.564 14.9637 54.4968 14.7843C54.4346 14.6186 54.3566 14.5002 54.2199 14.3238C53.808 13.844 53.0399 12.6571 52.4684 11.7142L52.4683 11.7142L52.4626 11.7045C52.1972 11.2434 51.8812 10.7659 51.5904 10.3699C51.2896 9.96038 51.0457 9.67959 50.9232 9.57742C49.0552 8.0255 47.9902 7.38428 46.7307 7.03591L46.7306 7.03604L46.7196 7.03271C45.8615 6.7739 44.4206 6.57373 42.9711 6.48022C41.5166 6.38637 40.1359 6.40538 39.3913 6.55163ZM51.9 23.4005L51.8968 23.3999C50.692 23.1534 49.8564 23.1503 48.3687 23.4029L48.368 23.4031C45.4215 23.899 43.7153 23.8683 42.1996 23.0943L42.1995 23.0944L42.1917 23.0902C41.9304 22.9508 41.5161 22.821 40.9836 22.7191C40.4591 22.6188 39.8505 22.5512 39.2205 22.5213C37.9482 22.4609 36.6498 22.5567 35.8143 22.8087L35.8144 22.8088L35.8044 22.8116C35.1319 22.9993 34.3119 23.0978 33.6311 23.1055C33.2911 23.1093 32.966 23.0908 32.7005 23.042C32.5687 23.0178 32.4335 22.983 32.3124 22.9299C32.204 22.8824 32.0384 22.791 31.9339 22.614C31.8485 22.4702 31.8471 22.3256 31.8524 22.2486C31.8582 22.1619 31.8785 22.0809 31.8995 22.0146C31.9419 21.8807 32.0105 21.7354 32.0889 21.5927C32.2473 21.3043 32.482 20.9616 32.7566 20.6255C33.1721 20.0956 33.5015 19.7118 33.9872 19.4713C34.4542 19.2401 35.0245 19.1632 35.8437 19.0784C36.9941 18.9279 38.2733 18.9855 39.1552 19.2059L39.1552 19.2059L39.1639 19.2082C39.525 19.3054 39.8588 19.373 40.1014 19.4058C40.2046 19.4197 40.2809 19.4259 40.3311 19.4273C40.4209 19.3902 40.5003 19.384 40.5301 19.3817C40.5918 19.377 40.6529 19.3796 40.7051 19.3839C40.8115 19.3927 40.9352 19.4137 41.0641 19.4415C41.3245 19.4976 41.6506 19.5912 41.9878 19.7137C42.6683 19.9573 43.9984 20.09 45.4005 20.0828C46.8011 20.0756 48.1442 19.9296 48.844 19.6833L48.8457 19.6828C49.4494 19.4728 50.3781 18.927 50.8806 18.4774C51.1852 18.2048 51.5132 17.9812 51.8148 17.8348C51.9651 17.7617 52.1208 17.7021 52.2723 17.6685C52.4138 17.6372 52.6043 17.6167 52.7931 17.6797L52.8019 17.6826L52.8105 17.6858C52.9417 17.735 53.036 17.8211 53.0912 17.878C53.1534 17.9423 53.2098 18.0161 53.2599 18.0897C53.3606 18.2377 53.4627 18.4246 53.5612 18.6312C53.759 19.0463 53.9636 19.5859 54.1295 20.1584C54.352 20.8976 54.5249 21.4898 54.6125 21.9422C54.6566 22.1696 54.684 22.3849 54.6795 22.5801C54.675 22.7743 54.6382 22.9865 54.5193 23.1758C54.2569 23.5938 53.7813 23.6425 53.4166 23.6299C53.0264 23.6165 52.5131 23.5217 51.9 23.4005Z" fill="#0A0909" stroke="black"/>
<path d="M30.8081 31.1526C30.8166 31.1847 30.8253 31.2168 30.834 31.2488C31.0094 31.8905 31.2437 32.5597 31.4789 33.0458L31.4817 33.0516L31.4818 33.0516C31.5242 33.1366 31.5791 33.3095 31.623 33.5359C31.6655 33.7549 31.69 33.9833 31.69 34.162C31.69 34.4751 31.7903 34.9061 31.9238 35.3252C32.0619 35.7586 32.2536 36.2347 32.4711 36.6542C32.668 37.034 32.8431 37.4125 32.9677 37.7136C33.0302 37.8646 33.0778 37.9909 33.1089 38.0852C33.1245 38.1326 33.1341 38.1665 33.1393 38.1883C33.1398 38.1904 33.1403 38.1924 33.1407 38.194C33.1486 38.3658 33.2229 38.5042 33.2801 38.59C33.3468 38.69 33.4313 38.7796 33.518 38.8567C33.6922 39.0116 33.9202 39.1554 34.168 39.2616C34.3262 39.3294 34.4607 39.4176 34.5475 39.4947C34.5698 39.5145 34.5861 39.531 34.5974 39.5437C34.6159 39.6739 34.6656 39.7873 34.7087 39.8699C34.7681 39.9835 34.8465 40.0968 34.9313 40.2046C35.1016 40.421 35.3307 40.6564 35.5836 40.8865C36.0887 41.346 36.7376 41.8286 37.3172 42.1419L37.3295 42.1485L37.3421 42.1544C37.798 42.369 38.4654 42.7848 38.8567 43.064C39.2193 43.3301 39.6805 43.493 40.3207 43.6111C40.9621 43.7294 41.8293 43.8105 43.0349 43.8831L43.0359 43.8832C44.7602 43.9838 45.8685 44.0069 46.7532 43.7857C47.6773 43.5547 48.3195 43.069 49.1472 42.3004L49.1481 42.2995C49.3508 42.1104 49.5639 41.9378 49.7401 41.8161C49.8288 41.7548 49.8996 41.7124 49.9492 41.6874C49.9579 41.683 49.9652 41.6796 49.971 41.677C50.137 41.6605 50.2657 41.5803 50.3509 41.5013C50.4441 41.4148 50.5061 41.3127 50.5474 41.2238C50.6302 41.0453 50.67 40.8335 50.67 40.629C50.67 40.6291 50.6702 40.6172 50.6753 40.5909C50.6802 40.5655 50.6886 40.5324 50.7018 40.4917C50.7284 40.4097 50.7699 40.3099 50.8262 40.199C50.9392 39.9761 51.0976 39.7357 51.2713 39.5373L51.2762 39.5316L51.2809 39.5259C51.4012 39.3799 51.5151 39.2305 51.6174 39.0858C51.13 41.1014 49.4012 43.7675 46.5633 46.6897L46.5618 46.6912C46.1846 47.083 45.8818 47.4077 45.6546 47.6862C45.4306 47.9607 45.2524 48.2227 45.1546 48.4904C45.0486 48.7806 45.0428 49.0609 45.1323 49.3427C45.2137 49.599 45.3682 49.8353 45.5328 50.0597L45.537 50.0654L45.5413 50.071C45.6394 50.1972 45.7423 50.3263 45.8459 50.4232C45.9495 50.5202 46.1231 50.652 46.3676 50.6589C46.6038 50.6657 46.7845 50.5513 46.8936 50.4691C47.0053 50.3848 47.1234 50.2696 47.2412 50.1519C47.3595 50.0405 47.4692 49.9342 47.5468 49.8418C47.5742 49.8092 47.6081 49.7662 47.6392 49.7152C47.9263 49.7379 48.2116 49.6677 48.4678 49.5035C48.5091 49.477 48.549 49.4485 48.5874 49.4182C48.7124 49.994 48.9356 50.6743 49.1975 51.3363C49.5968 52.3455 50.1219 53.4021 50.6337 54.1155L50.6356 54.1181C50.9249 54.5159 51.5079 54.9858 52.2661 55.4937C53.0423 56.0137 54.0585 56.6095 55.2709 57.2523C56.6996 58.0172 58.0039 58.7595 59.021 59.3741C60.0444 59.9924 60.7372 60.4581 60.9924 60.6844C61.2076 60.8954 61.5471 61.1081 61.8904 61.2907C62.2509 61.4825 62.663 61.6657 63.0475 61.8043C63.3767 61.9279 63.7344 62.0863 64.0454 62.2469C64.3688 62.4139 64.6022 62.5634 64.7106 62.662L64.7125 62.6637C64.9011 62.8334 65.2786 63.0749 65.6931 63.3179C66.1236 63.5702 66.6409 63.851 67.1434 64.1022L67.1492 64.1051L67.1492 64.1051L68.6818 64.8467L68.7527 66.1472L68.7527 66.1474C68.822 67.4089 68.7106 68.2383 68.1471 69.2252C67.5585 70.2563 66.4692 71.4727 64.4904 73.4515L64.4894 73.4524C61.8466 76.1099 60.5059 77.4247 59.4371 78.1246C58.4272 78.7859 57.6756 78.8898 56.1084 79.0193C54.6309 79.1084 52.628 79.4314 51.6334 79.7026C50.7295 79.9492 48.4816 80.2371 46.6089 80.3235L46.6061 80.3237L43.7627 80.4708L43.7389 78.121L43.7389 78.1168C43.7099 76.5504 43.5651 74.6774 43.4075 73.9842C43.2679 73.3699 43.13 72.3646 43.13 71.804C43.13 70.9986 42.9063 69.803 42.6307 68.7778C42.4915 68.2599 42.3343 67.768 42.1768 67.3733C42.0982 67.1764 42.0161 66.9953 41.9321 66.8438C41.8555 66.7056 41.7519 66.5444 41.6155 66.4314C41.6113 66.4254 41.5977 66.4054 41.5786 66.3626C41.5462 66.2901 41.5117 66.183 41.4798 66.0381C41.4164 65.7495 41.3749 65.3634 41.3608 64.9185L41.3319 63.3558L40.3476 63.2408L40.1192 64.1316C40.1095 64.1161 40.0997 64.1014 40.0898 64.0875C40.0633 64.0505 40.0165 63.991 39.9466 63.9388C39.8751 63.8855 39.7368 63.8096 39.5533 63.8326C39.3699 63.8556 39.2543 63.9633 39.1976 64.0333C39.1422 64.1019 39.1109 64.1724 39.0934 64.2174C39.0313 64.3776 38.9967 64.6227 38.9663 64.8883C38.9333 65.1774 38.8983 65.5697 38.855 66.0744C38.855 66.0754 38.8549 66.0763 38.8548 66.0773L39.353 66.12C39.237 67.309 39.063 71.108 38.976 74.53C38.889 77.952 38.744 80.823 38.657 80.91C38.367 81.2 31.755 80.881 29.725 80.475L30.8081 31.1526ZM30.8081 31.1526C30.7386 33.081 30.792 34.0173 30.9343 34.589C31.0162 34.901 31.0532 35.2031 31.0439 35.4598C31.0392 35.5878 31.0225 35.7195 30.9854 35.8416C30.9513 35.9533 30.8827 36.115 30.7333 36.2345L30.7284 36.2384C30.7227 36.2514 30.7149 36.2718 30.7067 36.3008C30.6796 36.3962 30.6621 36.5327 30.6636 36.6838C30.665 36.8347 30.6852 36.9728 30.7156 37.072C30.7282 37.1133 30.7393 37.1377 30.7459 37.1504C30.9106 37.2629 30.9915 37.4326 31.0278 37.5163C31.0821 37.6414 31.1221 37.7858 31.1527 37.9288C31.1912 38.108 31.2205 38.3127 31.241 38.5261C31.4549 38.4944 31.6212 38.5885 31.7134 38.6628C31.8049 38.7365 31.8741 38.8289 31.9246 38.9045C31.9788 38.9858 32.0333 39.0815 32.0886 39.1867C32.1992 39.3966 32.3332 39.6822 32.4992 40.0431L32.4994 40.0434C33.129 41.4146 34.197 43.0165 35.2616 44.3054C35.7929 44.9486 36.3141 45.5026 36.7686 45.9052C36.9961 46.1067 37.1997 46.2638 37.3737 46.3745C37.5542 46.4894 37.6732 46.535 37.7355 46.5468L37.743 46.5483L37.7504 46.5499C38.0273 46.6114 38.279 46.8154 38.4562 46.9966C38.6506 47.1954 38.8371 47.4515 38.9651 47.7256C39.0442 47.8951 39.1777 48.0986 39.3322 48.2852C39.4902 48.4762 39.6402 48.6133 39.7374 48.6752L39.7393 48.6764C40.034 48.8659 40.2436 49.1213 40.3682 49.4744C40.484 49.8024 40.52 50.1973 40.52 50.663C40.52 51.0215 40.4891 51.3816 40.4305 51.6746C40.4015 51.8194 40.3624 51.9652 40.3083 52.0916C40.2681 52.1853 40.1743 52.382 39.9736 52.4918C39.8036 52.5893 39.5726 52.6393 39.3449 52.5483C39.173 52.4795 39.0509 52.3484 38.9882 52.1919C38.9509 52.2506 38.9017 52.3022 38.8425 52.3429C38.7305 52.42 38.618 52.4345 38.567 52.4387C38.4595 52.4474 38.3562 52.4273 38.2929 52.4131C38.1486 52.3806 37.9657 52.3182 37.7701 52.2432C37.3704 52.0898 36.8327 51.8504 36.258 51.574C35.1163 51.025 33.77 50.3021 33.0097 49.7708C32.409 49.3683 31.6575 48.5028 31.0732 47.6884C30.7741 47.2714 30.5036 46.8468 30.3053 46.4721C30.2862 46.4361 30.2677 46.4002 30.2497 46.3646C30.2151 46.4284 30.179 46.4965 30.1416 46.5689C29.7022 47.4459 28.7648 48.639 27.821 49.6487C27.3438 50.1592 26.8528 50.6358 26.4056 51.014C25.9745 51.3785 25.5379 51.6921 25.1741 51.827L30.8081 31.1526ZM29.8269 79.9855C27.5115 79.4828 25.8113 78.653 23.3651 76.7188L23.3624 76.7166L23.3623 76.7167C21.4277 75.2088 18.4421 72.1379 16.8713 70.0531L16.8701 70.0515L15.87 68.7356V63.394V57.855V57.6804L15.7613 57.5438L14.747 56.2687C14.7469 56.2685 14.7468 56.2684 14.7467 56.2682C14.4805 55.932 14.2553 55.6101 14.1105 55.3665C14.0839 55.3218 14.0613 55.2818 14.0423 55.2466C14.1185 55.186 14.2174 55.1154 14.3381 55.0367C14.6104 54.8591 14.969 54.6559 15.3719 54.4509C16.1811 54.0392 17.1283 53.6408 17.8551 53.4351L17.8584 53.4342C18.3271 53.2981 18.8088 53.125 19.2163 52.9552C19.61 52.7911 19.977 52.6129 20.1881 52.4594L20.194 52.4551L20.194 52.455C20.2644 52.4022 20.4777 52.3148 20.8983 52.2435C21.293 52.1766 21.8017 52.1343 22.3941 52.12C22.396 52.12 22.3979 52.1199 22.3999 52.1199L22.388 51.62C23.461 51.62 24.621 51.504 24.998 51.359L29.8269 79.9855ZM29.8269 79.9855C30.8027 80.18 32.9256 80.3599 34.8677 80.4541C35.8342 80.501 36.7414 80.5259 37.4212 80.5215C37.755 80.5193 38.0251 80.5101 38.2175 80.4942L29.8269 79.9855ZM51.7909 37.9967C51.7909 37.9966 51.791 37.9977 51.7915 37.9997C51.7912 37.9977 51.791 37.9967 51.7909 37.9967ZM49.9901 41.6692C49.99 41.6692 49.9889 41.6696 49.9865 41.6705C49.989 41.6697 49.9902 41.6692 49.9901 41.6692ZM34.6178 39.5687C34.6177 39.5686 34.6176 39.5685 34.6175 39.5683L34.62 39.5725C34.6201 39.5724 34.6194 39.5712 34.6178 39.5687ZM33.1427 38.2041C33.1428 38.2043 33.1427 38.2037 33.1424 38.2022L33.1427 38.2041ZM30.9689 28.9475C30.9689 28.9474 30.9684 28.9481 30.9675 28.9498C30.9684 28.9484 30.9689 28.9476 30.9689 28.9475Z" fill="#0A0909" stroke="black"/>
<path d="M43.2403 32.5376C42.9804 32.4924 42.737 32.4727 42.5445 32.4735C42.6377 32.5244 42.7713 32.5719 42.9483 32.5923L42.9571 32.5933L42.9659 32.5947C43.2583 32.639 43.5169 32.7286 43.7236 32.8558C43.9182 32.9756 44.1202 33.1636 44.1949 33.4277C44.2347 33.5681 44.2358 33.7263 44.1766 33.881C44.1181 34.0337 44.0141 34.1485 43.8994 34.2287C43.6823 34.3806 43.4013 34.43 43.123 34.43C42.942 34.43 42.8608 34.4678 42.8029 34.5146C42.7287 34.5746 42.6307 34.701 42.5127 34.9893L42.5127 34.9893L42.511 34.9934C42.5056 35.0063 42.5002 35.0193 42.4947 35.0323C42.3301 35.4258 42.1597 35.833 41.7413 36.0516C41.5389 36.1573 41.3119 36.2032 41.0757 36.2306C40.8675 36.2547 40.6149 36.2678 40.3146 36.2803C40.7476 36.3351 41.3764 36.3871 42.2821 36.4468C43.1505 36.4911 44.0901 36.5793 44.906 36.6858C45.7048 36.7902 46.4217 36.9167 46.8331 37.0468C47.1753 37.1423 47.5222 37.2168 47.8032 37.2603C47.9452 37.2823 48.0636 37.2952 48.1521 37.3C48.1778 37.3013 48.198 37.3018 48.2134 37.3019C48.2201 37.2787 48.2268 37.2315 48.2135 37.1587C48.1813 36.9817 48.053 36.7759 47.8483 36.6631C47.0441 36.2509 46.3683 35.5403 45.9885 34.8584C45.799 34.5181 45.6615 34.1464 45.6454 33.7929C45.6289 33.4325 45.7435 33.0328 46.119 32.7911C46.1245 32.7804 46.1317 32.7644 46.1396 32.7425C46.1602 32.685 46.1769 32.6101 46.1849 32.5275C45.7527 32.6651 45.4046 32.7341 44.9562 32.7299C44.5263 32.7258 44.0109 32.6541 43.2513 32.5394L43.2513 32.5395L43.2403 32.5376ZM39.6839 36.4094C39.684 36.4094 39.6849 36.4086 39.6862 36.4069C39.6844 36.4085 39.6838 36.4094 39.6839 36.4094Z" fill="#0A0909" stroke="black"/>
</svg>
