<svg width="714" height="714" viewBox="0 0 714 714" fill="none" xmlns="http://www.w3.org/2000/svg">
<path d="M391.51 49.742C396.746 50.694 404.6 53.312 408.884 55.454C422.688 62.832 449.106 87.584 460.292 103.768C473.382 122.332 476.714 135.422 476.714 169.456C476.714 188.734 476 193.732 471.478 201.11C468.622 206.108 465.766 214.676 464.814 220.388C462.91 234.906 458.15 234.668 459.102 219.912C459.578 215.39 451.248 202.3 447.916 202.3C442.918 202.538 440.062 207.536 437.682 220.388C434.826 235.62 429.352 243.474 417.69 248.71C406.266 253.708 395.794 254.66 383.418 252.042C371.994 249.662 371.756 249.424 361.76 229.67C356.286 218.722 350.336 209.202 348.432 208.488C343.672 206.584 336.294 217.77 334.39 229.194C331.772 244.426 326.298 251.804 314.398 256.326C302.26 260.848 296.31 261.086 290.598 256.564C283.934 251.09 276.318 247.52 271.558 247.52C268.702 247.52 265.608 244.426 263.228 239.19C259.658 231.812 259.182 223.244 259.896 176.12C260.61 123.998 260.848 121.38 265.846 114.954C268.94 111.384 275.128 101.864 279.888 94.01C284.41 86.156 290.598 77.826 293.454 75.446C308.924 62.594 318.206 56.882 329.392 53.788C344.386 49.266 378.182 47.124 391.51 49.742ZM273.7 166.6C266.322 191.114 266.798 192.066 287.266 188.02C297.738 185.878 305.116 185.878 317.73 188.02C341.768 192.066 354.62 191.59 365.806 185.878C376.516 180.166 406.266 178.738 421.26 183.26C431.494 186.116 446.726 186.354 448.392 183.498C449.106 182.308 446.25 177.072 441.966 171.836C435.064 163.03 433.16 162.078 419.356 160.65C410.312 159.46 400.316 159.936 393.652 161.602C387.464 163.268 381.99 163.982 381.514 163.268C380.8 162.792 376.04 163.744 370.804 165.648C358.19 170.17 324.632 169.932 311.78 165.41C306.306 163.506 298.214 158.746 293.692 154.7C289.17 150.654 284.172 148.274 282.03 148.988C280.126 149.702 276.318 157.556 273.7 166.6Z" fill="black"/>
<path d="M464.576 240.856C466.004 266.798 465.766 278.222 464.1 284.886C462.91 289.408 463.148 293.216 464.338 294.168C467.194 295.834 467.194 306.306 464.1 308.21C462.672 308.924 461.72 314.16 461.482 319.634C461.482 328.678 461.244 329.154 459.102 323.68C456.96 318.206 456.484 318.444 451.01 330.344C440.3 353.668 415.072 384.132 405.076 386.036C402.934 386.512 399.602 389.844 397.936 393.414C396.27 396.984 392.7 401.268 390.082 402.934C386.75 405.076 385.56 408.408 385.56 415.786C385.56 421.26 386.512 426.496 387.94 427.21C389.13 427.924 390.32 427.448 390.32 426.258C390.32 424.83 391.986 423.64 393.89 423.64C395.794 423.64 397.46 424.83 397.46 426.02C397.46 428.4 428.876 413.406 440.776 405.076C449.344 399.364 464.1 378.658 464.1 372.708C464.1 370.09 466.718 373.422 470.288 380.324C476.952 393.652 499.8 418.166 508.844 421.498C511.938 422.688 521.458 423.64 530.264 423.64C540.26 423.878 547.876 425.068 550.732 427.21C553.35 429.114 561.204 432.446 568.582 434.588C581.196 438.158 600.712 448.154 603.33 452.2C604.044 453.152 600.712 458.626 596.19 464.338L587.86 474.81V520.268V565.488L578.816 577.388C565.726 594.762 540.974 620.228 524.79 632.842C504.322 649.026 489.804 656.166 470.05 660.45C453.39 663.782 399.126 666.4 396.746 664.02C396.032 663.306 394.842 639.744 394.128 611.66C393.414 583.576 391.986 552.398 391.034 542.64C389.606 525.98 389.368 525.266 386.75 531.692L383.894 538.594L381.276 529.312L378.896 520.03L378.658 532.882C378.42 540.498 377.23 546.686 375.088 548.352C371.042 551.684 364.14 577.15 364.14 589.288C364.14 594.286 362.95 602.854 361.76 608.09C360.57 613.326 359.38 628.32 359.142 641.172L358.904 664.734L331.296 663.306C315.826 662.592 297.024 660.212 289.17 658.07C281.316 655.928 265.132 653.31 253.232 652.596C227.29 650.454 224.91 649.026 181.832 605.71C149.464 573.342 144.466 564.298 145.656 542.64L146.37 529.55L161.126 522.41C169.218 518.364 177.786 513.366 180.166 511.224C182.784 508.844 189.448 505.512 195.16 503.37C201.11 501.228 208.012 497.658 210.63 495.04C215.39 490.756 234.906 478.856 258.468 466.242C278.222 455.77 291.312 446.964 295.12 441.728C302.974 430.78 311.78 408.408 312.018 399.126C312.256 393.652 312.97 391.51 313.446 394.366C315.112 402.458 320.824 406.028 326.298 402.696C331.772 399.126 335.58 399.126 335.58 402.22C335.58 403.41 333.2 404.6 330.344 404.6C325.346 404.6 325.108 404.838 329.154 408.646C333.2 412.692 333.676 412.692 337.008 408.408C342.244 401.268 341.292 398.888 328.916 386.036C304.878 361.284 289.884 338.198 286.076 320.348C284.172 311.542 284.41 309.4 287.028 309.4C288.932 309.4 290.36 310.59 290.36 312.018C290.36 313.446 292.978 317.73 296.31 321.776C299.642 325.584 302.26 330.82 302.26 333.438C302.26 335.818 303.212 337.96 304.402 337.96C305.83 337.96 309.876 340.816 313.446 344.148C326.774 356.524 332.01 357.714 360.57 356.048C380.324 354.858 388.178 353.43 392.7 350.098C396.032 347.718 401.744 344.148 405.79 342.244C414.596 337.484 426.02 327.25 426.02 323.68C426.02 322.252 428.638 319.872 431.97 318.444C435.302 317.016 437.92 314.636 437.92 313.208C437.92 311.78 440.538 305.354 443.87 298.928C447.202 292.502 449.82 284.172 449.82 280.364C449.82 276.794 450.772 271.796 451.962 269.416C455.532 262.038 459.34 248.472 459.34 242.046C459.34 232.764 464.1 231.574 464.576 240.856Z" fill="black"/>
<path d="M369.614 263.466C371.756 266.798 368.186 270.844 361.998 271.558C354.144 272.748 352.478 278.46 360.094 278.46C364.378 278.46 366.758 280.364 368.9 285.6C371.994 292.978 372.47 293.216 384.37 293.692C388.892 293.93 391.748 295.358 392.224 297.738C392.7 300.832 388.892 301.784 367.234 303.212C353.192 303.926 336.77 306.068 330.82 307.972C324.87 309.638 318.682 310.59 317.016 310.114C312.256 308.448 313.684 300.356 319.396 297.262C331.058 291.312 339.388 276.318 333.2 272.51C331.772 271.796 330.82 268.94 330.82 266.084C330.82 262.038 331.772 261.562 336.056 262.99C342.72 265.132 345.814 264.894 358.428 262.99C363.902 262.038 368.9 262.276 369.614 263.466Z" fill="black"/>
</svg>
